<svg viewBox="0 0 200 200" xmlns="http://www.w3.org/2000/svg">
  <defs>
    <linearGradient id="gradient" x1="0%" y1="0%" x2="100%" y2="100%">
      <stop offset="0%" style="stop-color:#667eea;stop-opacity:1" />
      <stop offset="100%" style="stop-color:#764ba2;stop-opacity:1" />
    </linearGradient>
  </defs>
  
  <!-- Face circle -->
  <circle cx="100" cy="100" r="90" fill="url(#gradient)" />
  
  <!-- Face -->
  <circle cx="100" cy="85" r="35" fill="#f4c2a1" />
  
  <!-- Eyes -->
  <circle cx="90" cy="78" r="3" fill="#333" />
  <circle cx="110" cy="78" r="3" fill="#333" />
  
  <!-- Nose -->
  <ellipse cx="100" cy="88" rx="2" ry="3" fill="#e6a882" />
  
  <!-- Mouth -->
  <path d="M 92 96 Q 100 102 108 96" stroke="#333" stroke-width="2" fill="none" stroke-linecap="round" />
  
  <!-- Hair -->
  <path d="M 70 65 Q 100 45 130 65 Q 125 50 100 50 Q 75 50 70 65" fill="#4a3728" />
  
  <!-- Body (shirt) -->
  <ellipse cx="100" cy="160" rx="45" ry="30" fill="#4f46e5" />
  
  <!-- Code symbols floating around -->
  <text x="40" y="50" font-family="monospace" font-size="12" fill="rgba(255,255,255,0.7)" transform="rotate(-15 40 50)">{'< />'}</text>
  <text x="150" y="60" font-family="monospace" font-size="10" fill="rgba(255,255,255,0.7)" transform="rotate(20 150 60)">JS</text>
  <text x="45" y="150" font-family="monospace" font-size="8" fill="rgba(255,255,255,0.7)" transform="rotate(-10 45 150)">React</text>
  <text x="155" y="140" font-family="monospace" font-size="9" fill="rgba(255,255,255,0.7)" transform="rotate(15 155 140)">TS</text>
</svg>